{
  "accessors": [
    {
      "bufferView": 0,
      "componentType": 5125,
      "count": 3594,
      "max": [
        651
      ],
      "min": [
        0
      ],
      "type": "SCALAR"
    },
    {
      "bufferView": 1,
      "componentType": 5126,
      "count": 652,
      "max": [
        0.21080385148525238,
        1.649960994720459,
        -0.0299342330545187
      ],
      "min": [
        -0.0007143130642361939,
        0.9242127537727356,
        -0.15914401412010193
      ],
      "type": "VEC3"
    },
    {
      "bufferView": 2,
      "componentType": 5126,
      "count": 652,
      "max": [
        0.9975996017456055,
        0.9423220753669739,
        0.995942234992981
      ],
      "min": [
        -0.7660667896270752,
        -0.6497901082038879,
        -0.9999979138374329
      ],
      "type": "VEC3"
    },
    {
      "bufferView": 3,
      "componentType": 5126,
      "count": 652,
      "max": [
        114.32830047607422,
        372.435302734375
      ],
      "min": [
        -114.32858276367188,
        -388.076416015625
      ],
      "type": "VEC2"
    },
    {
      "bufferView": 4,
      "componentType": 5125,
      "count": 3564,
      "max": [
        646
      ],
      "min": [
        0
      ],
      "type": "SCALAR"
    },
    {
      "bufferView": 5,
      "componentType": 5126,
      "count": 647,
      "max": [
        0.0010883343638852239,
        1.649960994720459,
        -0.0310942642390728
      ],
      "min": [
        -0.2098366916179657,
        0.9239981174468994,
        -0.1587558090686798
      ],
      "type": "VEC3"
    },
    {
      "bufferView": 6,
      "componentType": 5126,
      "count": 647,
      "max": [
        0.7565404772758484,
        0.9395889043807983,
        0.9962507486343384
      ],
      "min": [
        -0.9916303157806396,
        -0.6101274490356445,
        -0.9999938607215881
      ],
      "type": "VEC3"
    },
    {
      "bufferView": 7,
      "componentType": 5126,
      "count": 647,
      "max": [
        114.32858276367188,
        372.435302734375
      ],
      "min": [
        -114.32830047607422,
        -388.076416015625
      ],
      "type": "VEC2"
    }
  ],
  "asset": {
    "generator": "CLO Standalone OnlineAuth 2024.2.214",
    "version": "2.0"
  },
  "bufferViews": [
    {
      "buffer": 0,
      "byteLength": 14376
    },
    {
      "buffer": 0,
      "byteLength": 7824,
      "byteOffset": 14376
    },
    {
      "buffer": 0,
      "byteLength": 7824,
      "byteOffset": 22200
    },
    {
      "buffer": 0,
      "byteLength": 5216,
      "byteOffset": 30024
    },
    {
      "buffer": 0,
      "byteLength": 14256,
      "byteOffset": 35240
    },
    {
      "buffer": 0,
      "byteLength": 7764,
      "byteOffset": 49496
    },
    {
      "buffer": 0,
      "byteLength": 7764,
      "byteOffset": 57260
    },
    {
      "buffer": 0,
      "byteLength": 5176,
      "byteOffset": 65024
    }
  ],
  "buffers": [
    {
      "byteLength": 70200,
      "uri": "data:application/octet-stream;base64,"
    }
  ],
  "extensionsUsed": [
    "KHR_materials_specular"
  ],
  "materials": [
    {
      "doubleSided": true,
      "extensions": {
        "KHR_materials_specular": {
          "specularFactor": 0.15000000596046448
        }
      },
      "name": "single_cut_2934229",
      "pbrMetallicRoughness": {
        "metallicFactor": 0.0,
        "roughnessFactor": 0.5
      }
    }
  ],
  "meshes": [
    {
      "name": "3",
      "primitives": [
        {
          "attributes": {
            "NORMAL": 2,
            "POSITION": 1,
            "TEXCOORD_0": 3
          },
          "indices": 0,
          "material": 0
        }
      ]
    },
    {
      "name": "14",
      "primitives": [
        {
          "attributes": {
            "NORMAL": 6,
            "POSITION": 5,
            "TEXCOORD_0": 7
          },
          "indices": 4,
          "material": 0
        }
      ]
    }
  ],
  "nodes": [
    {
      "children": [
        1
      ],
      "name": "only_back_Scene_Node"
    },
    {
      "children": [
        2,
        3
      ],
      "name": "Cloth"
    },
    {
      "mesh": 0,
      "name": "3"
    },
    {
      "mesh": 1,
      "name": "14"
    }
  ],
  "scene": 0,
  "scenes": [
    {
      "nodes": [
        0
      ]
    }
  ]
}